<?xml version="1.0" standalone="no"?><!DOCTYPE svg PUBLIC "-//W3C//DTD SVG 1.1//EN" "http://www.w3.org/Graphics/SVG/1.1/DTD/svg11.dtd"><svg t="1738580033435" class="icon" viewBox="0 0 1024 1024" version="1.1" xmlns="http://www.w3.org/2000/svg" p-id="2286" xmlns:xlink="http://www.w3.org/1999/xlink" width="200" height="200"><path d="M527.539419 730.580239c36.537983-21.880342 64.982427-55.571692 83.145299-97.57976a226.518427 226.518427 0 0 0-83.145299-22.103522z m0 0M334.546051 650.502564a263.426188 263.426188 0 0 1 41.137231-32.159726A344.212786 344.212786 0 0 1 359.931624 527.316239h-72.428308a223.135726 223.135726 0 0 0 47.042735 123.186325z m0 0M496.90694 444.39412a259.275487 259.275487 0 0 1-93.873231-23.632958 311.199726 311.199726 0 0 0-12.469606 76.14359h106.342837z m0 0M287.288889 496.90694h72.419555a335.559111 335.559111 0 0 1 15.762599-91.026598 251.186325 251.186325 0 0 1-41.137231-32.164103 227.704342 227.704342 0 0 0-47.042735 123.190701z m0 0M496.90694 527.539419H390.564103c0.984615 25.794735 5.170325 51.375043 12.471794 76.134837a259.264547 259.264547 0 0 1 93.871043-23.622017z m0 0M496.90694 730.580239v-119.895521a226.052376 226.052376 0 0 0-83.368478 21.880342c18.375111 42.008068 46.605128 75.922598 83.368478 98.015179z m0 0M527.539419 580.052239a256.448547 256.448547 0 0 1 93.86229 24.068376 313.319932 313.319932 0 0 0 12.690599-76.581196h-106.552889z m0 0M637.374359 648.31453a250.013538 250.013538 0 0 1-54.040068 77.675214 226.032684 226.032684 0 0 0 85.545572-52.075214 208.736274 208.736274 0 0 0-31.503316-25.6z m0 0M496.90694 293.852991C460.14359 315.949949 431.913573 349.647863 413.538462 391.883487a226.384957 226.384957 0 0 0 83.368478 21.880342z m0 0M527.539419 496.90694h106.331897a306.224137 306.224137 0 0 0-12.690598-76.581196 255.474872 255.474872 0 0 1-93.864479 24.068376v52.51282z m0 0M689.453949 373.283009A248.823248 248.823248 0 0 1 648.752137 405.442735a330.666667 330.666667 0 0 1 15.753846 91.459829h72.423932a223.846838 223.846838 0 0 0-47.475966-123.623932z m0 0M386.844444 376.779487a249.670017 249.670017 0 0 1 54.267624-78.336A224.820513 224.820513 0 0 0 355.117949 351.179487a225.511932 225.511932 0 0 0 31.726495 25.6z m0 0M664.505983 527.539419a346.01135 346.01135 0 0 1-15.753846 91.451077 239.635692 239.635692 0 0 1 40.701812 32.172854 223.897162 223.897162 0 0 0 47.478154-123.623931z m0 0M668.882051 350.523077a228.896821 228.896821 0 0 0-85.54776-52.07959 250.013538 250.013538 0 0 1 54.042256 77.675214 208.738462 208.738462 0 0 0 31.503316-25.597812z m0 0M386.844444 647.65812a224.043761 224.043761 0 0 0-31.945299 25.6 224.820513 224.820513 0 0 0 85.989744 52.731624 249.068308 249.068308 0 0 1-54.044445-78.331624z m0 0M527.539419 293.852991v119.90865a226.684718 226.684718 0 0 0 83.145299-22.103521c-18.162872-42.010256-46.607316-75.710359-83.145299-97.805129z m0 0M38.290598 226.461538c-1.964855-27.127248-0.65641-52.289641 4.376069-74.616341 6.787282-30.632479 20.129915-56.230291 39.607795-75.699419 27.350427-27.350427 65.853265-42.454427 114.213196-44.642462a335.545983 335.545983 0 0 1 69.358496 4.822428L270.878632 6.126496A368.615932 368.615932 0 0 0 194.96041 0.870838c-56.241231 2.634393-101.53135 20.574085-134.564102 53.606837C36.973402 78.112821 20.786325 108.745299 12.690598 145.281094a287.347966 287.347966 0 0 0-4.813675 83.591658z m0 0M17.94188 293.196581a534.422974 534.422974 0 0 0 15.97265 55.357265l28.882051-9.846154a531.116855 531.116855 0 0 1-15.097436-52.298393z m0 0M115.309402 455.767521c-10.50694-19.254701-20.353094-38.723829-28.882052-57.545299l-28.006837 12.690599c8.97094 19.692308 19.031521 39.822222 29.971692 59.737709z m0 0M279.197538 678.513778c-8.975316-9.633915-18.162872-19.692308-26.702769-29.538462l-4.588307-5.257846-23.197539 20.129915 4.599248 5.255658c8.964376 10.058393 18.160684 20.348718 27.350427 30.194872 4.152889 4.376068 8.31453 8.966564 12.690599 13.342632L291.446154 691.418803c-4.152889-4.152889-8.093538-8.528957-12.246428-12.905025z m0 0M143.09306 558.819556C153.162393 573.264957 163.667145 587.924786 174.607316 602.368c2.623453 3.282051 5.246906 6.776342 7.870359 10.058393l24.291556-18.81053c-2.625641-3.282051-5.032479-6.564103-7.65812-9.846154a902.669128 902.669128 0 0 1-30.632479-42.454427z m0 0M969.075966 608.273504l-27.998086 12.257368c20.786325 47.478154 34.785368 92.991453 41.57265 134.776342 12.681846 78.99241-1.317197 141.351385-40.478633 180.51282-19.480068 19.480068-44.642462 32.608274-74.839521 39.607795-24.280615 5.470085-52.066462 6.776342-82.051282 3.938462-7.43494-0.65641-15.09306-1.750427-22.751179-2.844445l-4.813676 30.194872c8.318906 1.308444 16.624684 2.402462 24.505983 3.06106 11.377778 1.094017 22.317949 1.531624 33.043693 1.531624 19.707624 0.159726 39.375863-1.899214 58.630564-6.130872 36.102564-8.093538 66.299624-24.280615 89.709401-47.690393 46.395077-46.395077 63.240752-117.941607 49.01853-206.992411-7.001709-44.417094-21.668103-92.335043-43.548444-142.222222z m0 0M928.164103 527.316239l-26.694018 15.09306c8.528957 14.880821 16.410256 29.761641 23.63077 44.419282L952.451282 573.264957c-7.443692-15.09306-15.535043-30.632479-24.287179-45.948718z m0 0M781.999043 374.153846L805.196581 354.238359c-14.222222-16.622496-29.315282-33.255932-44.417094-49.230769L738.68253 326.017094c14.657641 15.753846 29.315282 31.949675 43.314325 48.136752z m0 0M860.553846 476.991453l25.376821-17.281094c-12.246427-17.950632-25.374632-36.102564-38.938257-54.053197l-24.291555 18.598291A1130.294701 1130.294701 0 0 1 860.553846 476.991453z m0 0M713.299145 897.750427l-29.538461 8.533334 15.972649 55.580444a704.371966 704.371966 0 0 1-125.151179-52.300581 1042.423248 1042.423248 0 0 1-152.514735-99.555556 1240.29812 1240.29812 0 0 1-101.52041-88.827624l-21.442735 21.880342a1260.351453 1260.351453 0 0 0 104.150427 91.015658 1074.661744 1074.661744 0 0 0 156.882051 102.625368 765.264957 765.264957 0 0 0 106.557265 46.819556l-38.505026 10.94017L636.717949 1024l89.486222-25.6a15.123692 15.123692 0 0 0 9.189744-7.211761 15.11494 15.11494 0 0 0 1.315008-11.607521z m0 0M330.616342 120.998291l29.97388-6.349676-12.257367-56.888889a728.527863 728.527863 0 0 1 97.590701 42.666667 1023.547077 1023.547077 0 0 1 150.536752 97.155282c22.530188 17.281094 45.069128 36.102564 66.735042 55.357265 12.248615 10.940171 24.505983 22.317949 36.540171 33.91453 5.246906 5.025915 10.502564 10.283761 15.751658 15.530667l21.657163-21.657163c-5.470085-5.257846-10.716991-10.727932-16.187077-15.974837a1412.492034 1412.492034 0 0 0-37.419761-34.785368C661.223932 210.051282 638.249573 191.015385 615.060786 173.07788 591.425641 154.691829 567.357265 137.846154 543.288889 122.092308c14.434462-8.316718 29.100855-15.974838 43.323077-23.197539l-13.572376-27.350427c-15.751658 7.881299-31.726496 16.410256-47.478154 25.385573l12.257367 21.442735C512 101.74359 485.962393 86.42735 459.922598 72.865915A800.463863 800.463863 0 0 0 384 38.067419l37.852991-8.093539L415.505504 0l-90.803419 19.915487a15.740718 15.740718 0 0 0-9.622974 6.564103 15.556923 15.556923 0 0 0-2.188034 11.587829z m0 0M151.845197 981.77094c-30.632479-6.77853-56.230291-20.129915-75.699419-39.599043-27.350427-27.350427-42.454427-65.864205-44.642462-114.224136a321.363145 321.363145 0 0 1 4.822428-69.358496L6.126496 753.558974a368.655316 368.655316 0 0 0-5.257846 75.931351c2.634393 56.230291 20.574085 101.52041 53.606837 134.564102C78.333812 987.897436 108.745299 1003.870085 145.281094 1011.965812a269.478291 269.478291 0 0 0 57.770667 5.907692c8.31453 0 17.066667-0.437607 25.818803-1.094017l-2.409026-30.632478c-27.127248 1.973607-52.289641 0.65641-74.616341-4.376069z m0 0M286.194872 976.519658l7.001709 29.752889a536.501607 536.501607 0 0 0 55.357265-15.963897l-9.846154-28.890804a493.519863 493.519863 0 0 1-52.51282 15.104z m0 0M398.222222 937.795829l12.690599 27.998086c19.692308-8.964376 39.822222-19.033709 59.737709-29.973881l-14.668581-26.91282c-19.469128 10.725744-38.938256 20.348718-57.759727 28.888615z m0 0" p-id="2287" fill="#18a058"></path><path d="M602.365812 849.828103c3.282051-2.623453 6.77853-5.246906 10.060581-7.65812l-18.81053-24.280615c-3.282051 2.623453-6.564103 5.032479-9.846154 7.658119a908.887521 908.887521 0 0 1-42.454427 30.632479l17.292034 25.162393c14.878632-10.069333 29.538462-20.786325 43.760684-31.514256z m0 0M669.100855 795.127248c10.060581-8.964376 20.353094-18.151932 30.199248-27.350427 4.376068-4.152889 8.964376-8.305778 13.340444-12.681847L691.418803 732.991453l-13.128205 12.471795c-9.622974 9.185368-19.692308 18.160684-29.538461 26.689641L643.505231 776.752137l20.127726 23.197538c1.964855-1.752615 3.71747-3.282051 5.470086-4.822427z m0 0M979.145299 287.726496l-81.613675 23.411966 8.537709 29.538461 55.571693-15.977026a705.054632 705.054632 0 0 1-52.289641 125.164308 1043.497573 1043.497573 0 0 1-99.555556 152.503795 1240.400957 1240.400957 0 0 1-88.838564 101.52041l21.880342 21.444923a1260.454291 1260.454291 0 0 0 91.026598-104.154803A1074.609231 1074.609231 0 0 0 936.478632 464.300855a763.812103 763.812103 0 0 0 46.819556-106.555077l10.940171 38.513778 29.538462-8.539898-25.597812-89.486222a15.425641 15.425641 0 0 0-19.03371-10.504752z m0 0M755.309402 42.010256c78.988034-12.694974 141.347009 1.312821 180.51282 40.478633 19.47788 19.47788 32.606085 44.640274 39.603419 74.826393 5.470085 24.291556 6.77853 52.077402 3.942838 82.051282-0.658598 7.44588-1.752615 15.104-2.846633 22.76212L1006.71453 266.940171c1.308444-8.31453 2.402462-16.633436 3.06106-24.505983 3.282051-33.476923 1.750427-64.332581-4.599248-91.897436-8.093538-36.102564-24.280615-66.297436-47.690393-89.709402C911.09306 14.44759 839.54653-2.409026 750.495726 11.813197c-44.417094 7.010462-92.335043 21.880342-142.222222 43.760683l12.257368 28.009026c47.478154-20.998564 92.768274-35.008547 134.776342-41.57265z m0 0M459.924786 138.502564c-17.94188 12.248615-36.102564 25.376821-54.044444 38.951385l18.59829 24.280615c17.281094-13.340444 35.008547-26.033231 52.512821-37.852991z m0 0M374.153846 242.434188l-19.915487-23.193162c-16.622496 14.222222-33.255932 29.324034-49.230769 44.417094L326.017094 285.761641c15.753846-14.668581 31.949675-29.326222 48.136752-43.325265z m0 0M26.47959 709.360684a15.955145 15.955145 0 0 0 8.305778 2.406837 17.618051 17.618051 0 0 0 3.282051-0.43323L121.000479 693.606838l-6.351864-29.976069-56.888889 12.248616a728.899829 728.899829 0 0 1 42.666667-97.579761A1023.096342 1023.096342 0 0 1 197.581675 427.760684c17.281094-22.536752 36.102564-45.07788 55.357265-66.735043 10.940171-12.257368 22.317949-24.505983 33.91453-36.540171 5.025915-5.255658 10.283761-10.502564 15.530667-15.74947l-21.657163-21.668103c-5.257846 5.257846-10.727932 10.727932-15.974837 16.198018a1398.92841 1398.92841 0 0 0-34.785368 37.40882C210.051282 362.994872 191.015385 385.969231 173.07788 409.162393A1056.903658 1056.903658 0 0 0 72.861538 564.289641a801.592889 801.592889 0 0 0-34.796307 75.933538L29.976068 602.365812 0 608.708923l19.469128 91.026598a17.681504 17.681504 0 0 0 7.010462 9.622975z m0 0" p-id="2288" fill="#18a058"></path></svg>