<?xml version="1.0" standalone="no"?><!DOCTYPE svg PUBLIC "-//W3C//DTD SVG 1.1//EN" "http://www.w3.org/Graphics/SVG/1.1/DTD/svg11.dtd"><svg t="1737939945208" class="icon" viewBox="0 0 1024 1024" version="1.1" xmlns="http://www.w3.org/2000/svg" p-id="27348" xmlns:xlink="http://www.w3.org/1999/xlink" width="200" height="200"><path d="M215.6032 648.2944a361.0112 361.0112 0 0 0 176.896 132.4544l-80.896 80.896a11.8272 11.8272 0 0 1-8.6016 3.6352 12.2368 12.2368 0 0 1-11.1616-7.3728l-28.2112-64.6144A73.6256 73.6256 0 0 0 225.28 755.2L160.7168 727.04a12.3392 12.3392 0 0 1-3.7888-20.0192l58.6752-58.6752m5.4272-48.8448l-85.8112 85.76A43.0592 43.0592 0 0 0 148.48 755.1488L213.0432 783.36a43.2128 43.2128 0 0 1 22.4768 22.2208L263.4752 870.4a43.008 43.008 0 0 0 69.8368 13.2096l118.784-118.784a332.4928 332.4928 0 0 1-231.0656-165.1712zM807.5776 647.5264l59.4944 59.4432a12.3392 12.3392 0 0 1-3.7888 20.0192L798.72 755.2a73.6256 73.6256 0 0 0-38.0928 38.0928L732.16 857.856a12.1856 12.1856 0 0 1-11.3664 7.424 11.8272 11.8272 0 0 1-8.6016-3.6352l-81.2544-81.2032a361.472 361.472 0 0 0 176.4352-133.12m-5.4784-48.9472a332.4928 332.4928 0 0 1-230.4 165.8368l118.9888 118.9888a43.008 43.008 0 0 0 70.0416-12.8l28.2112-64.6144a43.2128 43.2128 0 0 1 22.2208-22.2208l64.5632-28.416a43.0592 43.0592 0 0 0 13.2096-69.888l-86.6816-86.6816z" p-id="27349" fill="#18a058"></path><path d="M511.3344 168.96a268.6464 268.6464 0 1 1-268.6976 268.6976A268.9536 268.9536 0 0 1 511.3344 168.96m0-30.72a299.4688 299.4688 0 1 0 299.3664 299.4176A299.4176 299.4176 0 0 0 511.3344 138.24z" p-id="27350" fill="#18a058"></path><path d="M511.3344 643.1232a205.6192 205.6192 0 1 1 37.3248-3.4304 209.92 209.92 0 0 1-37.3248 3.4304z m0-380.2624A174.7456 174.7456 0 1 0 686.08 437.6576a175.0016 175.0016 0 0 0-174.7456-174.7968z" p-id="27351" fill="#18a058"></path><path d="M444.0064 559.104a16.9984 16.9984 0 0 1-10.24-3.3792 17.2032 17.2032 0 0 1-6.9632-16.9984l11.3152-65.9456-47.872-46.6432a17.408 17.408 0 0 1 9.6256-29.7472L465.92 386.7648l29.5424-59.9552a17.4592 17.4592 0 0 1 31.2832 0l29.5936 59.9552 66.1504 9.6256a17.4592 17.4592 0 0 1 9.6768 29.7472l-47.872 46.6432 11.264 65.8944a17.408 17.408 0 0 1-25.2928 18.3808l-59.136-31.1296-58.9824 31.1296a17.152 17.152 0 0 1-8.1408 2.048z m73.472-36.4032zM431.0016 422.912l33.5872 32.768a17.3568 17.3568 0 0 1 5.12 15.36l-7.936 46.08 41.5232-21.8112a17.408 17.408 0 0 1 16.1792 0l41.5744 21.8112-8.0896-46.08a17.4592 17.4592 0 0 1 5.12-15.36l33.5872-32.768-46.4384-6.7584a17.4592 17.4592 0 0 1-13.1072-9.472l-20.48-42.0864-20.7872 42.0352a17.2544 17.2544 0 0 1-13.1072 9.5232z m32-29.8496z" p-id="27352" fill="#18a058"></path></svg>