<?xml version="1.0" standalone="no"?><!DOCTYPE svg PUBLIC "-//W3C//DTD SVG 1.1//EN" "http://www.w3.org/Graphics/SVG/1.1/DTD/svg11.dtd"><svg t="1737941139284" class="icon" viewBox="0 0 1024 1024" version="1.1" xmlns="http://www.w3.org/2000/svg" p-id="33727" xmlns:xlink="http://www.w3.org/1999/xlink" width="200" height="200"><path d="M592 224h32v128h-32z" p-id="33728" fill="#18a058"></path><path d="M991.504 860.608a16.24 16.24 0 0 0-0.816-2.592c-0.16-0.384-0.192-0.8-0.368-1.184l-176-352a16.032 16.032 0 0 0-7.152-7.152L736.592 462.4a205.152 205.152 0 0 0-65.44-19.76c8.688-18.448 14.304-38.56 16.096-59.808C741.792 375.36 784 328.576 784 272v-96a16 16 0 0 0-16-16H256a16 16 0 0 0-16 16v96c0 56.576 42.208 103.36 96.752 110.832a174.368 174.368 0 0 0 16.096 59.808 205.152 205.152 0 0 0-65.44 19.76l-70.576 35.28a16.032 16.032 0 0 0-7.152 7.152l-176 352c-0.192 0.384-0.224 0.8-0.368 1.184a16.24 16.24 0 0 0-1.12 4.72C32.144 863.168 32 863.568 32 864v112a16.032 16.032 0 0 0 27.312 11.312c52.544-52.544 122.384-81.472 196.688-81.472s144.144 28.928 196.688 81.472A15.952 15.952 0 0 0 464 992h96c4.24 0 8.32-1.68 11.312-4.688 52.544-52.544 122.384-81.472 196.688-81.472s144.144 28.928 196.688 81.472A16 16 0 0 0 992 976v-112c0-0.432-0.144-0.832-0.176-1.264a16.272 16.272 0 0 0-0.32-2.128zM653.184 473.056c23.968 1.12 47.696 7.28 69.088 17.984l65.808 32.896 154.432 308.864c-5.456-2.016-10.992-3.792-16.512-5.632-2.832-0.944-5.632-1.984-8.464-2.896a564.768 564.768 0 0 0-30.576-8.816c-1.216-0.32-2.464-0.544-3.68-0.864a570.512 570.512 0 0 0-27.424-6.16c-3.04-0.608-6.096-1.088-9.152-1.648a566.624 566.624 0 0 0-22.576-3.664c-3.392-0.48-6.784-0.896-10.176-1.312a575.728 575.728 0 0 0-22.256-2.256c-3.312-0.272-6.624-0.56-9.936-0.768-7.952-0.512-15.904-0.8-23.872-0.976-2.736-0.064-5.472-0.192-8.208-0.208a550.464 550.464 0 0 0-32.096 0.64c-5.456 0.272-10.864 0.736-16.24 1.392-1.952 0.24-3.888 0.624-5.84 0.912-3.392 0.496-6.784 0.944-10.144 1.584-4.416 0.848-8.768 1.888-13.104 2.976-0.864 0.224-1.728 0.368-2.592 0.592-57.424 15.136-107.968 51.584-141.68 101.392V736h128a16 16 0 0 0 16-16v-64a16 16 0 0 0-16-16c-44.112 0-80-35.888-80-80 0-8.96 1.568-17.92 4.672-26.672a15.632 15.632 0 0 0 0.832-3.696c1.632-0.704 3.2-1.568 4.8-2.32 2.448-1.136 4.896-2.256 7.28-3.52 3.2-1.68 6.288-3.536 9.376-5.424 2.32-1.408 4.704-2.72 6.96-4.24 4.832-3.248 9.504-6.704 13.984-10.4 2.208-1.824 4.256-3.856 6.368-5.792 2.512-2.288 5.04-4.56 7.424-6.992 2.064-2.112 3.984-4.336 5.952-6.544 2.304-2.608 4.56-5.248 6.704-8 0.928-1.136 1.968-2.16 2.848-3.344zM478.816 544h66.352A109.536 109.536 0 0 0 544 560c0 56.336 41.792 103.072 96 110.864V704H384v-33.136c54.208-7.792 96-54.528 96-110.864 0-5.344-0.384-10.688-1.184-16zM752 272a80.128 80.128 0 0 1-64 78.384V192h64v80z m-96 96a143.2 143.2 0 0 1-24.592 80.4 141.744 141.744 0 0 1-9.36 12.272c-1.408 1.664-2.912 3.232-4.4 4.832a152.624 152.624 0 0 1-11.856 11.52 145.824 145.824 0 0 1-7.216 5.76c-1.76 1.328-3.472 2.704-5.28 3.952-4.16 2.848-8.432 5.536-12.864 7.92-1.232 0.672-2.544 1.2-3.808 1.84a140.88 140.88 0 0 1-10.832 4.976c-1.744 0.704-3.52 1.296-5.296 1.936a143.2 143.2 0 0 1-15.776 4.688 139.152 139.152 0 0 1-11.296 2.112c-1.632 0.24-3.248 0.56-4.912 0.752-5.44 0.64-10.944 1.04-16.512 1.04s-11.072-0.4-16.512-1.024c-1.648-0.192-3.264-0.512-4.912-0.752a147.872 147.872 0 0 1-11.296-2.112 151.28 151.28 0 0 1-15.776-4.688c-1.776-0.64-3.552-1.232-5.296-1.936a140.88 140.88 0 0 1-10.832-4.976c-1.248-0.64-2.576-1.168-3.808-1.84a145.248 145.248 0 0 1-12.864-7.92c-1.824-1.248-3.536-2.624-5.28-3.952a145.824 145.824 0 0 1-7.216-5.76 136.832 136.832 0 0 1-11.856-11.52c-1.472-1.6-2.992-3.168-4.4-4.832a146.816 146.816 0 0 1-9.36-12.272A143.28 143.28 0 0 1 368 368V192h288v176z m-384-96v-80h64v158.384A80.128 80.128 0 0 1 272 272z m-36.08 251.936l65.808-32.896a173.056 173.056 0 0 1 69.088-17.984c0.88 1.184 1.92 2.208 2.832 3.376 2.16 2.736 4.4 5.392 6.704 8 1.952 2.208 3.888 4.432 5.952 6.544 2.384 2.432 4.912 4.704 7.424 6.992 2.128 1.936 4.16 3.968 6.368 5.792 4.48 3.696 9.152 7.152 13.984 10.4 2.256 1.52 4.64 2.832 6.96 4.24 3.088 1.872 6.16 3.728 9.376 5.424 2.384 1.248 4.832 2.368 7.28 3.52 1.616 0.752 3.168 1.616 4.816 2.32a15.808 15.808 0 0 0 0.832 3.696C446.432 542.08 448 551.04 448 560c0 44.112-35.888 80-80 80a16 16 0 0 0-16 16v64a16 16 0 0 0 16 16h128v171.2c-42.896-63.424-112.88-105.088-189.584-108.96-1.856-0.096-3.712-0.032-5.552-0.112-1.648-0.08-3.264-0.272-4.912-0.32-5.936-0.192-11.84-0.288-17.776-0.288-1.2 0-2.4 0.08-3.6 0.08-2.464 0.016-4.928 0.112-7.392 0.16-7.952 0.16-15.904 0.48-23.856 0.976-2.96 0.192-5.92 0.368-8.88 0.592a555.04 555.04 0 0 0-27.248 2.768c-1.12 0.144-2.24 0.224-3.36 0.368-10.032 1.328-20.016 2.992-29.952 4.864-2.896 0.544-5.776 1.168-8.656 1.744-7.44 1.52-14.832 3.168-22.208 4.992-2.928 0.72-5.856 1.424-8.784 2.176-9.808 2.576-19.568 5.328-29.232 8.432l-1.344 0.464c-7.44 2.4-14.848 4.928-22.176 7.648l154.432-308.848zM64 940.384V874.56c3.216-1.408 6.432-2.784 9.664-4.128 4.72-1.952 9.44-3.92 14.208-5.728a496 496 0 0 1 14.832-5.312c4.736-1.648 9.472-3.296 14.24-4.8 5.072-1.6 10.192-3.056 15.312-4.512 4.784-1.36 9.568-2.72 14.384-3.936 5.136-1.296 10.288-2.448 15.456-3.6 4.912-1.088 9.824-2.192 14.752-3.152 5.088-0.976 10.208-1.808 15.312-2.656 5.104-0.832 10.208-1.664 15.328-2.352 4.96-0.672 9.936-1.184 14.912-1.712 5.312-0.56 10.64-1.12 15.968-1.52 4.864-0.368 9.728-0.592 14.592-0.816 5.44-0.256 10.864-0.512 16.304-0.608 4.88-0.08 9.76-0.016 14.64 0.032 5.008 0.048 10.016 0.112 15.008 0.304a220.288 220.288 0 0 1 184.544 118.944l1.024 2.144c1.44 2.896 2.768 5.872 4.08 8.848h-18.064C358.128 852.288 183.92 845.728 64 940.384zM553.472 960h-18.128c0.864-1.984 1.76-3.952 2.688-5.888 0.944-1.968 1.84-3.952 2.832-5.888 1.488-2.912 3.088-5.744 4.704-8.576 0.992-1.744 1.952-3.536 2.992-5.248 1.888-3.12 3.904-6.144 5.936-9.152 0.896-1.328 1.728-2.704 2.656-4 3.024-4.272 6.176-8.432 9.472-12.464l0.496-0.56c3.136-3.808 6.4-7.504 9.776-11.088 1.168-1.248 2.416-2.4 3.616-3.6 2.432-2.464 4.88-4.928 7.424-7.264 1.472-1.36 3.008-2.624 4.512-3.936 2.368-2.064 4.752-4.128 7.216-6.096 1.664-1.328 3.376-2.576 5.072-3.856 2.416-1.808 4.832-3.6 7.312-5.312 1.792-1.232 3.632-2.416 5.472-3.6a202.304 202.304 0 0 1 27.024-14.8c2.688-1.232 5.424-2.384 8.176-3.504 2.016-0.816 4.016-1.632 6.064-2.384 2.816-1.04 5.68-1.984 8.56-2.912 2.016-0.656 4.032-1.328 6.064-1.92 3.024-0.864 6.096-1.6 9.168-2.336 1.936-0.464 3.856-0.976 5.808-1.376 3.424-0.704 6.896-1.248 10.368-1.792 1.648-0.256 3.28-0.592 4.928-0.8 5.152-0.656 10.336-1.152 15.568-1.424a534.928 534.928 0 0 1 31.632-0.624c2.8 0.032 5.6 0.24 8.416 0.32 7.712 0.192 15.44 0.416 23.136 0.944 3.648 0.256 7.28 0.72 10.912 1.04 6.816 0.608 13.632 1.2 20.432 2.064 4.128 0.528 8.208 1.264 12.32 1.888 6.272 0.96 12.544 1.872 18.768 3.04 4.384 0.832 8.72 1.856 13.072 2.784 5.904 1.264 11.808 2.496 17.664 3.968 4.512 1.12 8.96 2.448 13.44 3.68 5.632 1.568 11.28 3.104 16.864 4.864 4.56 1.424 9.056 3.024 13.584 4.576 5.408 1.856 10.816 3.696 16.16 5.728 4.56 1.728 9.056 3.616 13.568 5.472 3.632 1.504 7.248 3.024 10.848 4.608v65.824C840.08 845.728 665.872 852.288 553.472 960zM976 96c-26.464 0-48-21.536-48-48a16 16 0 0 0-32 0c0 26.464-21.536 48-48 48a16 16 0 0 0 0 32c26.464 0 48 21.536 48 48a16 16 0 0 0 32 0c0-26.464 21.536-48 48-48a16 16 0 0 0 0-32z m-64 32.048A81.12 81.12 0 0 0 895.952 112 81.12 81.12 0 0 0 912 95.952 81.12 81.12 0 0 0 928.048 112 81.12 81.12 0 0 0 912 128.048zM48 304c26.464 0 48 21.536 48 48a16 16 0 0 0 32 0c0-26.464 21.536-48 48-48a16 16 0 0 0 0-32c-26.464 0-48-21.536-48-48a16 16 0 0 0-32 0c0 26.464-21.536 48-48 48a16 16 0 0 0 0 32z m64-32.048A81.12 81.12 0 0 0 128.048 288 81.12 81.12 0 0 0 112 304.048 81.12 81.12 0 0 0 95.952 288 81.12 81.12 0 0 0 112 271.952zM368 128h32c0-52.944-43.056-96-96-96h-16v32h16c35.296 0 64 28.704 64 64zM768 64h16V32h-16c-52.944 0-96 43.056-96 96h32c0-35.296 28.704-64 64-64zM544 32v32h-32v32h32v32h32V96h32V64h-32V32z" p-id="33729" fill="#18a058"></path><path d="M880 336v32h-32v32h32v32h32v-32h32v-32h-32v-32zM208 32h32v32h-32zM928 256h32v32h-32zM192 384h32v32h-32zM32 128h32v32H32z" p-id="33730" fill="#18a058"></path></svg>