<?xml version="1.0" standalone="no"?><!DOCTYPE svg PUBLIC "-//W3C//DTD SVG 1.1//EN" "http://www.w3.org/Graphics/SVG/1.1/DTD/svg11.dtd"><svg t="1738579107732" class="icon" viewBox="0 0 1024 1024" version="1.1" xmlns="http://www.w3.org/2000/svg" p-id="4613" xmlns:xlink="http://www.w3.org/1999/xlink" width="200" height="200"><path d="M451.2 653c-48-0.1-92.5-21.8-122-59.7-5.8-7.5-4.5-18.3 3-24.1 7.5-5.9 18.3-4.6 24.2 2.9 23 29.5 57.6 46.4 94.9 46.4 37.7 0 72.6-17.1 95.7-47 5.8-7.5 16.6-8.9 24.1-3.1 7.5 5.8 9 16.6 3.2 24.1C544.5 631 499.7 653 451.2 653zM580 437.4c-19.2 0-34.7-15.5-34.7-34.7v-46.3c0-19.2 15.5-34.7 34.7-34.7s34.7 15.5 34.7 34.7v46.3c0 19.2-15.5 34.7-34.7 34.7zM330.5 437.4c-19.2 0-34.7-15.5-34.7-34.7v-46.3c0-19.2 15.5-34.7 34.7-34.7 19.2 0 34.7 15.5 34.7 34.7v46.3c0 19.2-15.5 34.7-34.7 34.7z" fill="#18a058" p-id="4614"></path><path d="M644.3 730.1c-53.2 40.7-119.6 65-191.7 65-174.3 0-316.1-141.8-316.1-316.1s141.8-316.1 316.1-316.1S768.7 304.7 768.7 479c0 33-5.1 64.9-14.6 94.9 16.3 3.1 31.4 10.2 44.1 20.6 12.2-36.3 18.9-75.1 18.9-115.5 0-201-163.5-364.5-364.5-364.5S88.1 278 88.1 479s163.5 364.5 364.5 364.5c84.3 0 162-28.9 223.9-77.2-13.5-9.2-24.5-21.6-32.2-36.2z" fill="#18a058" p-id="4615"></path><path d="M661.2 677.6c-1.3 39 25.4 71.4 61.2 76.2l-2.3 70.9c-19.6 4.3-34.9 22.4-35.6 44.3-0.8 25.1 17.9 45.6 41.7 45.7 23.9 0.1 43.9-20.1 44.7-45.3 0.7-21.8-13.3-40.1-32.7-44.6l2.3-70.9c36-4.5 64.9-36.6 66.2-75.6v-3.2l64.9 0.3c3.5 20.5 20.3 36 41.1 36.1 23.9 0.1 43.9-20.2 44.7-45.3 0.8-25.1-17.9-45.6-41.8-45.7-20.7 0-38.6 15.3-43.4 35.7l-67.9-0.3c-8-31.4-35-54.5-67.9-54.6-40.1-0.2-73.8 34-75.2 76.3z" fill="#18a058" p-id="4616"></path></svg>